<svg id="visual" viewBox="0 0 900 600" width="900" height="600" xmlns="http://www.w3.org/2000/svg" xmlns:xlink="http://www.w3.org/1999/xlink" version="1.1"><rect x="0" y="0" width="900" height="600" fill="#f3f3f3"></rect><defs><linearGradient id="grad1_0" x1="33.3%" y1="0%" x2="100%" y2="100%"><stop offset="20%" stop-color="#f3f3f3" stop-opacity="1"></stop><stop offset="80%" stop-color="#f3f3f3" stop-opacity="1"></stop></linearGradient></defs><defs><linearGradient id="grad2_0" x1="0%" y1="0%" x2="66.7%" y2="100%"><stop offset="20%" stop-color="#f3f3f3" stop-opacity="1"></stop><stop offset="80%" stop-color="#f3f3f3" stop-opacity="1"></stop></linearGradient></defs><g transform="translate(900, 0)"><path d="M0 297.5C-20.1 279.8 -40.1 262.1 -57.4 251.5C-74.7 240.9 -89.2 237.3 -115.8 240.6C-142.5 243.8 -181.2 253.8 -185.5 232.6C-189.7 211.3 -159.6 158.8 -176.7 140.9C-193.8 123 -258.1 139.7 -265.8 128C-273.5 116.3 -224.5 76.3 -220.3 50.3C-216.2 24.2 -256.8 12.1 -297.5 0L0 0Z" fill="#008eff"></path></g><g transform="translate(0, 600)"><path d="M0 -297.5C19.1 -284 38.1 -270.6 61 -267.1C83.8 -263.7 110.5 -270.2 123.2 -255.9C136 -241.5 134.8 -206.4 155.9 -195.5C177 -184.6 220.4 -198 232.6 -185.5C244.7 -173 225.6 -134.6 231.5 -111.5C237.5 -88.5 268.5 -80.8 283.7 -64.8C298.9 -48.7 298.2 -24.4 297.5 0L0 0Z" fill="#008eff"></path></g></svg>